<svg width="339" height="48" viewBox="0 0 339 48" fill="none" xmlns="http://www.w3.org/2000/svg">
<rect x="0.5" y="0.5" width="338" height="47" rx="11.5" stroke="white" stroke-opacity="0.85"/>
<rect x="213" width="126" height="48" rx="12" fill="white"/>
<path d="M245.117 21.4205C245.057 20.8826 244.807 20.4659 244.367 20.1705C243.928 19.8712 243.375 19.7216 242.708 19.7216C242.231 19.7216 241.818 19.7973 241.469 19.9489C241.121 20.0966 240.85 20.3011 240.657 20.5625C240.468 20.8201 240.373 21.1136 240.373 21.4432C240.373 21.7197 240.437 21.9583 240.566 22.1591C240.699 22.3598 240.871 22.5284 241.083 22.6648C241.299 22.7973 241.53 22.9091 241.776 23C242.022 23.0871 242.259 23.1591 242.487 23.2159L243.623 23.5114C243.994 23.6023 244.375 23.7254 244.765 23.8807C245.155 24.036 245.517 24.2405 245.85 24.4943C246.183 24.7481 246.452 25.0625 246.657 25.4375C246.865 25.8125 246.969 26.2614 246.969 26.7841C246.969 27.4432 246.799 28.0284 246.458 28.5398C246.121 29.0511 245.63 29.4545 244.987 29.75C244.346 30.0455 243.572 30.1932 242.663 30.1932C241.791 30.1932 241.038 30.0549 240.401 29.7784C239.765 29.5019 239.267 29.1098 238.907 28.6023C238.547 28.0909 238.348 27.4848 238.31 26.7841H240.072C240.106 27.2045 240.242 27.5549 240.481 27.8352C240.723 28.1117 241.032 28.3182 241.407 28.4545C241.786 28.5871 242.201 28.6534 242.651 28.6534C243.147 28.6534 243.589 28.5758 243.975 28.4205C244.365 28.2614 244.672 28.0417 244.896 27.7614C245.119 27.4773 245.231 27.1458 245.231 26.767C245.231 26.4223 245.132 26.1402 244.935 25.9205C244.742 25.7008 244.479 25.5189 244.146 25.375C243.816 25.2311 243.443 25.1042 243.026 24.9943L241.651 24.6193C240.719 24.3655 239.981 23.9924 239.435 23.5C238.894 23.0076 238.623 22.3561 238.623 21.5455C238.623 20.875 238.805 20.2898 239.168 19.7898C239.532 19.2898 240.024 18.9015 240.646 18.625C241.267 18.3447 241.968 18.2045 242.748 18.2045C243.536 18.2045 244.231 18.3428 244.833 18.6193C245.439 18.8958 245.916 19.2765 246.265 19.7614C246.613 20.2424 246.795 20.7955 246.81 21.4205H245.117ZM254.46 26.3807V21.2727H256.164V30H254.494V28.4886H254.403C254.202 28.9545 253.88 29.3428 253.437 29.6534C252.997 29.9602 252.45 30.1136 251.795 30.1136C251.234 30.1136 250.738 29.9905 250.306 29.7443C249.878 29.4943 249.541 29.125 249.295 28.6364C249.052 28.1477 248.931 27.5436 248.931 26.8239V21.2727H250.63V26.6193C250.63 27.214 250.795 27.6875 251.124 28.0398C251.454 28.392 251.882 28.5682 252.408 28.5682C252.727 28.5682 253.043 28.4886 253.357 28.3295C253.675 28.1705 253.939 27.9299 254.147 27.608C254.359 27.286 254.463 26.8769 254.46 26.3807ZM258.583 30V18.3636H260.282V22.6875H260.384C260.483 22.5057 260.625 22.2955 260.81 22.0568C260.996 21.8182 261.254 21.6098 261.583 21.4318C261.913 21.25 262.348 21.1591 262.89 21.1591C263.594 21.1591 264.223 21.3371 264.776 21.6932C265.329 22.0492 265.763 22.5625 266.077 23.233C266.396 23.9034 266.555 24.7102 266.555 25.6534C266.555 26.5966 266.397 27.4053 266.083 28.0795C265.769 28.75 265.337 29.267 264.788 29.6307C264.238 29.9905 263.612 30.1705 262.907 30.1705C262.377 30.1705 261.943 30.0814 261.606 29.9034C261.272 29.7254 261.011 29.517 260.822 29.2784C260.632 29.0398 260.487 28.8277 260.384 28.642H260.242V30H258.583ZM260.248 25.6364C260.248 26.25 260.337 26.7879 260.515 27.25C260.693 27.7121 260.951 28.0739 261.288 28.3352C261.625 28.5928 262.038 28.7216 262.526 28.7216C263.034 28.7216 263.458 28.5871 263.799 28.3182C264.14 28.0455 264.397 27.6761 264.572 27.2102C264.75 26.7443 264.839 26.2197 264.839 25.6364C264.839 25.0606 264.752 24.5436 264.577 24.0852C264.407 23.6269 264.149 23.2652 263.805 23C263.464 22.7348 263.038 22.6023 262.526 22.6023C262.034 22.6023 261.617 22.7292 261.276 22.983C260.939 23.2367 260.683 23.5909 260.509 24.0455C260.335 24.5 260.248 25.0303 260.248 25.6364ZM275.002 23.4034L273.462 23.6761C273.398 23.4792 273.296 23.2917 273.156 23.1136C273.019 22.9356 272.834 22.7898 272.599 22.6761C272.364 22.5625 272.07 22.5057 271.718 22.5057C271.237 22.5057 270.835 22.6136 270.513 22.8295C270.192 23.0417 270.031 23.3163 270.031 23.6534C270.031 23.9451 270.138 24.1799 270.354 24.358C270.57 24.536 270.919 24.6818 271.4 24.7955L272.786 25.1136C273.589 25.2992 274.188 25.5852 274.582 25.9716C274.976 26.358 275.173 26.8598 275.173 27.4773C275.173 28 275.021 28.4659 274.718 28.875C274.419 29.2803 274 29.5985 273.462 29.8295C272.928 30.0606 272.309 30.1761 271.604 30.1761C270.627 30.1761 269.83 29.9678 269.212 29.5511C268.595 29.1307 268.216 28.5341 268.076 27.7614L269.718 27.5114C269.82 27.9394 270.031 28.2633 270.349 28.483C270.667 28.6989 271.082 28.8068 271.593 28.8068C272.15 28.8068 272.595 28.6913 272.928 28.4602C273.262 28.2254 273.428 27.9394 273.428 27.6023C273.428 27.3295 273.326 27.1004 273.121 26.9148C272.921 26.7292 272.612 26.589 272.195 26.4943L270.718 26.1705C269.904 25.9848 269.301 25.6894 268.911 25.2841C268.525 24.8788 268.332 24.3655 268.332 23.7443C268.332 23.2292 268.476 22.7784 268.763 22.392C269.051 22.0057 269.449 21.7045 269.957 21.4886C270.464 21.2689 271.046 21.1591 271.701 21.1591C272.644 21.1591 273.387 21.3636 273.928 21.7727C274.47 22.178 274.828 22.7216 275.002 23.4034ZM280.717 30.1761C279.872 30.1761 279.145 29.9848 278.535 29.6023C277.929 29.2159 277.463 28.6837 277.137 28.0057C276.811 27.3277 276.648 26.5511 276.648 25.6761C276.648 24.7898 276.815 24.0076 277.148 23.3295C277.482 22.6477 277.951 22.1155 278.558 21.733C279.164 21.3504 279.878 21.1591 280.7 21.1591C281.362 21.1591 281.953 21.2822 282.472 21.5284C282.991 21.7708 283.41 22.1117 283.728 22.5511C284.05 22.9905 284.241 23.5038 284.302 24.0909H282.648C282.558 23.6818 282.349 23.3295 282.023 23.0341C281.701 22.7386 281.27 22.5909 280.728 22.5909C280.254 22.5909 279.84 22.7159 279.484 22.9659C279.131 23.2121 278.857 23.5644 278.66 24.0227C278.463 24.4773 278.364 25.0152 278.364 25.6364C278.364 26.2727 278.461 26.822 278.654 27.2841C278.847 27.7462 279.12 28.1042 279.472 28.358C279.828 28.6117 280.247 28.7386 280.728 28.7386C281.05 28.7386 281.342 28.6799 281.603 28.5625C281.868 28.4413 282.09 28.2689 282.268 28.0455C282.45 27.822 282.576 27.553 282.648 27.2386H284.302C284.241 27.803 284.058 28.3068 283.751 28.75C283.444 29.1932 283.033 29.5417 282.518 29.7955C282.006 30.0492 281.406 30.1761 280.717 30.1761ZM286.119 30V21.2727H287.761V22.6591H287.852C288.011 22.1894 288.291 21.8201 288.692 21.5511C289.098 21.2784 289.556 21.142 290.067 21.142C290.174 21.142 290.299 21.1458 290.442 21.1534C290.59 21.161 290.706 21.1705 290.789 21.1818V22.8068C290.721 22.7879 290.6 22.767 290.425 22.7443C290.251 22.7178 290.077 22.7045 289.903 22.7045C289.501 22.7045 289.143 22.7898 288.829 22.9602C288.518 23.1269 288.272 23.3598 288.09 23.6591C287.908 23.9545 287.817 24.2917 287.817 24.6705V30H286.119ZM292.259 30V21.2727H293.958V30H292.259ZM293.117 19.9261C292.822 19.9261 292.568 19.8277 292.356 19.6307C292.147 19.4299 292.043 19.1913 292.043 18.9148C292.043 18.6345 292.147 18.3958 292.356 18.1989C292.568 17.9981 292.822 17.8977 293.117 17.8977C293.413 17.8977 293.665 17.9981 293.873 18.1989C294.085 18.3958 294.191 18.6345 294.191 18.9148C294.191 19.1913 294.085 19.4299 293.873 19.6307C293.665 19.8277 293.413 19.9261 293.117 19.9261ZM296.38 30V18.3636H298.079V22.6875H298.181C298.28 22.5057 298.422 22.2955 298.607 22.0568C298.793 21.8182 299.05 21.6098 299.38 21.4318C299.71 21.25 300.145 21.1591 300.687 21.1591C301.391 21.1591 302.02 21.3371 302.573 21.6932C303.126 22.0492 303.56 22.5625 303.874 23.233C304.192 23.9034 304.352 24.7102 304.352 25.6534C304.352 26.5966 304.194 27.4053 303.88 28.0795C303.566 28.75 303.134 29.267 302.585 29.6307C302.035 29.9905 301.408 30.1705 300.704 30.1705C300.174 30.1705 299.74 30.0814 299.403 29.9034C299.069 29.7254 298.808 29.517 298.619 29.2784C298.429 29.0398 298.283 28.8277 298.181 28.642H298.039V30H296.38ZM298.045 25.6364C298.045 26.25 298.134 26.7879 298.312 27.25C298.49 27.7121 298.747 28.0739 299.085 28.3352C299.422 28.5928 299.835 28.7216 300.323 28.7216C300.831 28.7216 301.255 28.5871 301.596 28.3182C301.937 28.0455 302.194 27.6761 302.369 27.2102C302.547 26.7443 302.636 26.2197 302.636 25.6364C302.636 25.0606 302.549 24.5436 302.374 24.0852C302.204 23.6269 301.946 23.2652 301.602 23C301.261 22.7348 300.835 22.6023 300.323 22.6023C299.831 22.6023 299.414 22.7292 299.073 22.983C298.736 23.2367 298.48 23.5909 298.306 24.0455C298.132 24.5 298.045 25.0303 298.045 25.6364ZM310.021 30.1761C309.161 30.1761 308.42 29.9924 307.799 29.625C307.182 29.2538 306.704 28.733 306.367 28.0625C306.034 27.3883 305.867 26.5985 305.867 25.6932C305.867 24.7992 306.034 24.0114 306.367 23.3295C306.704 22.6477 307.174 22.1155 307.776 21.733C308.382 21.3504 309.091 21.1591 309.901 21.1591C310.394 21.1591 310.871 21.2405 311.333 21.4034C311.795 21.5663 312.21 21.822 312.577 22.1705C312.945 22.5189 313.235 22.9716 313.447 23.5284C313.659 24.0814 313.765 24.7538 313.765 25.5455V26.1477H306.827V24.875H312.1C312.1 24.428 312.009 24.0322 311.827 23.6875C311.646 23.339 311.39 23.0644 311.06 22.8636C310.735 22.6629 310.352 22.5625 309.913 22.5625C309.435 22.5625 309.019 22.6799 308.663 22.9148C308.31 23.1458 308.038 23.4489 307.844 23.8239C307.655 24.1951 307.56 24.5985 307.56 25.0341V26.0284C307.56 26.6117 307.663 27.108 307.867 27.517C308.076 27.9261 308.365 28.2386 308.737 28.4545C309.108 28.6667 309.541 28.7727 310.038 28.7727C310.36 28.7727 310.653 28.7273 310.918 28.6364C311.183 28.5417 311.413 28.4015 311.606 28.2159C311.799 28.0303 311.947 27.8011 312.049 27.5284L313.657 27.8182C313.528 28.2917 313.297 28.7064 312.964 29.0625C312.634 29.4148 312.219 29.6894 311.719 29.8864C311.223 30.0795 310.657 30.1761 310.021 30.1761Z" fill="#2B2B39"/>
<path d="M25.3773 29V18.8182H31.5222V19.9119H26.6102V23.3523H31.204V24.446H26.6102V27.9062H31.6017V29H25.3773ZM33.7604 29V21.3636H34.8939V22.5568H34.9933C35.1524 22.1491 35.4093 21.8326 35.7639 21.6072C36.1186 21.3786 36.5445 21.2642 37.0416 21.2642C37.5454 21.2642 37.9647 21.3786 38.2995 21.6072C38.6375 21.8326 38.901 22.1491 39.0899 22.5568H39.1695C39.365 22.1624 39.6584 21.8492 40.0495 21.6172C40.4405 21.3819 40.9095 21.2642 41.4564 21.2642C42.1392 21.2642 42.6977 21.478 43.1318 21.9055C43.566 22.3298 43.7831 22.991 43.7831 23.8892V29H42.6098V23.8892C42.6098 23.3258 42.4557 22.9231 42.1475 22.6811C41.8392 22.4392 41.4763 22.3182 41.0587 22.3182C40.5218 22.3182 40.1058 22.4806 39.8108 22.8054C39.5158 23.1269 39.3683 23.5346 39.3683 24.0284V29H38.1752V23.7699C38.1752 23.3357 38.0343 22.986 37.7526 22.7209C37.4709 22.4524 37.1079 22.3182 36.6638 22.3182C36.3589 22.3182 36.0738 22.3994 35.8087 22.5618C35.5468 22.7242 35.3347 22.9496 35.1723 23.2379C35.0132 23.523 34.9337 23.8527 34.9337 24.2273V29H33.7604ZM48.3505 29.179C47.8666 29.179 47.4275 29.0878 47.033 28.9055C46.6386 28.7199 46.3254 28.4531 46.0934 28.1051C45.8614 27.7538 45.7454 27.3295 45.7454 26.8324C45.7454 26.3949 45.8316 26.0402 46.0039 25.7685C46.1763 25.4934 46.4066 25.2779 46.695 25.1222C46.9833 24.9664 47.3015 24.8504 47.6495 24.7741C48.0008 24.6946 48.3538 24.6316 48.7085 24.5852C49.1725 24.5256 49.5487 24.4808 49.837 24.451C50.1287 24.4179 50.3408 24.3632 50.4734 24.2869C50.6093 24.2107 50.6772 24.0781 50.6772 23.8892V23.8494C50.6772 23.3589 50.543 22.9777 50.2745 22.706C50.0094 22.4342 49.6067 22.2983 49.0664 22.2983C48.5063 22.2983 48.0671 22.4209 47.749 22.6662C47.4308 22.9115 47.2071 23.1733 47.0778 23.4517L45.9642 23.054C46.163 22.59 46.4282 22.2287 46.7596 21.9702C47.0944 21.7083 47.4589 21.526 47.8534 21.4233C48.2511 21.3172 48.6422 21.2642 49.0267 21.2642C49.2719 21.2642 49.5536 21.294 49.8718 21.3537C50.1933 21.41 50.5032 21.5277 50.8015 21.7067C51.1031 21.8857 51.3534 22.1558 51.5522 22.517C51.7511 22.8783 51.8505 23.3622 51.8505 23.9688V29H50.6772V27.9659H50.6176C50.538 28.1316 50.4054 28.3089 50.2198 28.4979C50.0342 28.6868 49.7873 28.8475 49.4791 28.9801C49.1708 29.1127 48.7946 29.179 48.3505 29.179ZM48.5295 28.125C48.9935 28.125 49.3846 28.0339 49.7028 27.8516C50.0243 27.6693 50.2662 27.4339 50.4286 27.1456C50.5944 26.8572 50.6772 26.554 50.6772 26.2358V25.1619C50.6275 25.2216 50.5181 25.2763 50.3491 25.326C50.1834 25.3724 49.9911 25.4138 49.7724 25.4503C49.557 25.4834 49.3465 25.5133 49.141 25.5398C48.9388 25.563 48.7748 25.5829 48.6488 25.5994C48.3439 25.6392 48.0588 25.7038 47.7937 25.7933C47.5319 25.8795 47.3197 26.0104 47.1573 26.1861C46.9982 26.3584 46.9187 26.5937 46.9187 26.892C46.9187 27.2997 47.0695 27.608 47.3711 27.8168C47.676 28.0223 48.0622 28.125 48.5295 28.125ZM54.167 29V21.3636H55.3403V29H54.167ZM54.7636 20.0909C54.5349 20.0909 54.3377 20.013 54.172 19.8572C54.0096 19.7015 53.9284 19.5142 53.9284 19.2955C53.9284 19.0767 54.0096 18.8894 54.172 18.7337C54.3377 18.5779 54.5349 18.5 54.7636 18.5C54.9923 18.5 55.1879 18.5779 55.3503 18.7337C55.516 18.8894 55.5988 19.0767 55.5988 19.2955C55.5988 19.5142 55.516 19.7015 55.3503 19.8572C55.1879 20.013 54.9923 20.0909 54.7636 20.0909ZM58.8376 18.8182V29H57.6643V18.8182H58.8376ZM65.8508 29H64.5581L68.2968 18.8182H69.5695L73.3081 29H72.0155L68.9729 20.429H68.8934L65.8508 29ZM66.328 25.0227H71.5383V26.1165H66.328V25.0227ZM77.7935 29.1591C77.1572 29.1591 76.5954 28.9983 76.1081 28.6768C75.6209 28.352 75.2398 27.8946 74.9647 27.3047C74.6896 26.7114 74.552 26.0104 74.552 25.2017C74.552 24.3996 74.6896 23.7036 74.9647 23.1136C75.2398 22.5237 75.6226 22.0679 76.1131 21.7464C76.6037 21.425 77.1704 21.2642 77.8134 21.2642C78.3106 21.2642 78.7033 21.3471 78.9917 21.5128C79.2833 21.6752 79.5054 21.8608 79.6579 22.0696C79.8136 22.2751 79.9346 22.4441 80.0208 22.5767H80.1202V18.8182H81.2935V29H80.16V27.8267H80.0208C79.9346 27.9659 79.812 28.1416 79.6529 28.3537C79.4938 28.5625 79.2668 28.7498 78.9718 28.9155C78.6768 29.0779 78.284 29.1591 77.7935 29.1591ZM77.9526 28.1051C78.4233 28.1051 78.821 27.9825 79.1458 27.7372C79.4706 27.4886 79.7175 27.1456 79.8866 26.7081C80.0556 26.2673 80.1401 25.7585 80.1401 25.1818C80.1401 24.6117 80.0572 24.1129 79.8915 23.6854C79.7258 23.2545 79.4805 22.9197 79.1557 22.6811C78.8309 22.4392 78.4299 22.3182 77.9526 22.3182C77.4555 22.3182 77.0412 22.4458 76.7097 22.701C76.3816 22.9529 76.1347 23.2959 75.9689 23.7301C75.8065 24.161 75.7253 24.6449 75.7253 25.1818C75.7253 25.7254 75.8082 26.2192 75.9739 26.6634C76.143 27.1042 76.3915 27.4555 76.7197 27.7173C77.0511 27.9759 77.4621 28.1051 77.9526 28.1051ZM86.6638 29.1591C86.0275 29.1591 85.4657 28.9983 84.9785 28.6768C84.4912 28.352 84.1101 27.8946 83.835 27.3047C83.5599 26.7114 83.4224 26.0104 83.4224 25.2017C83.4224 24.3996 83.5599 23.7036 83.835 23.1136C84.1101 22.5237 84.4929 22.0679 84.9834 21.7464C85.474 21.425 86.0407 21.2642 86.6837 21.2642C87.1809 21.2642 87.5736 21.3471 87.862 21.5128C88.1537 21.6752 88.3757 21.8608 88.5282 22.0696C88.684 22.2751 88.8049 22.4441 88.8911 22.5767H88.9905V18.8182H90.1638V29H89.0303V27.8267H88.8911C88.8049 27.9659 88.6823 28.1416 88.5232 28.3537C88.3641 28.5625 88.1371 28.7498 87.8421 28.9155C87.5471 29.0779 87.1544 29.1591 86.6638 29.1591ZM86.8229 28.1051C87.2936 28.1051 87.6913 27.9825 88.0161 27.7372C88.3409 27.4886 88.5878 27.1456 88.7569 26.7081C88.9259 26.2673 89.0104 25.7585 89.0104 25.1818C89.0104 24.6117 88.9276 24.1129 88.7618 23.6854C88.5961 23.2545 88.3509 22.9197 88.026 22.6811C87.7012 22.4392 87.3002 22.3182 86.8229 22.3182C86.3258 22.3182 85.9115 22.4458 85.58 22.701C85.2519 22.9529 85.005 23.2959 84.8393 23.7301C84.6769 24.161 84.5957 24.6449 84.5957 25.1818C84.5957 25.7254 84.6785 26.2192 84.8442 26.6634C85.0133 27.1042 85.2618 27.4555 85.59 27.7173C85.9214 27.9759 86.3324 28.1051 86.8229 28.1051ZM92.6506 29V21.3636H93.7841V22.517H93.8637C94.0029 22.1392 94.2548 21.8326 94.6194 21.5973C94.9839 21.362 95.3949 21.2443 95.8523 21.2443C95.9385 21.2443 96.0462 21.246 96.1755 21.2493C96.3047 21.2526 96.4025 21.2576 96.4688 21.2642V22.4574C96.429 22.4474 96.3379 22.4325 96.1954 22.4126C96.0562 22.3894 95.9087 22.3778 95.7529 22.3778C95.3817 22.3778 95.0502 22.4557 94.7586 22.6115C94.4702 22.764 94.2415 22.9761 94.0725 23.2479C93.9068 23.5163 93.8239 23.8229 93.8239 24.1676V29H92.6506ZM101.004 29.1591C100.268 29.1591 99.6334 28.9967 99.0998 28.6719C98.5695 28.3438 98.1601 27.8864 97.8718 27.2997C97.5867 26.7098 97.4442 26.0237 97.4442 25.2415C97.4442 24.4593 97.5867 23.7699 97.8718 23.1733C98.1601 22.5734 98.5612 22.1061 99.0749 21.7713C99.592 21.4332 100.195 21.2642 100.885 21.2642C101.282 21.2642 101.675 21.3305 102.063 21.4631C102.451 21.5956 102.804 21.8111 103.122 22.1094C103.44 22.4044 103.694 22.7955 103.882 23.2827C104.071 23.7699 104.166 24.3698 104.166 25.0824V25.5795H98.2795V24.5653H102.973C102.973 24.1345 102.886 23.75 102.714 23.4119C102.545 23.0739 102.303 22.8071 101.988 22.6115C101.677 22.416 101.309 22.3182 100.885 22.3182C100.417 22.3182 100.013 22.4342 99.6715 22.6662C99.3334 22.8949 99.0733 23.1932 98.891 23.5611C98.7087 23.929 98.6175 24.3234 98.6175 24.7443V25.4205C98.6175 25.9972 98.717 26.486 98.9158 26.8871C99.118 27.2848 99.3981 27.5881 99.756 27.7969C100.114 28.0024 100.53 28.1051 101.004 28.1051C101.312 28.1051 101.591 28.062 101.839 27.9759C102.091 27.8864 102.308 27.7538 102.49 27.5781C102.673 27.3991 102.814 27.1771 102.913 26.9119L104.046 27.2301C103.927 27.6146 103.727 27.9527 103.445 28.2443C103.163 28.5327 102.815 28.758 102.401 28.9205C101.987 29.0795 101.521 29.1591 101.004 29.1591ZM111.535 23.0739L110.481 23.3722C110.414 23.1965 110.317 23.0258 110.187 22.8601C110.061 22.6911 109.889 22.5518 109.67 22.4425C109.452 22.3331 109.172 22.2784 108.83 22.2784C108.363 22.2784 107.973 22.3861 107.662 22.6016C107.354 22.8137 107.199 23.0838 107.199 23.4119C107.199 23.7036 107.306 23.9339 107.518 24.103C107.73 24.272 108.061 24.4129 108.512 24.5256L109.646 24.804C110.328 24.9697 110.837 25.2232 111.172 25.5646C111.507 25.9027 111.674 26.3385 111.674 26.8722C111.674 27.3097 111.548 27.7008 111.296 28.0455C111.047 28.3902 110.699 28.6619 110.252 28.8608C109.805 29.0597 109.284 29.1591 108.691 29.1591C107.912 29.1591 107.267 28.9901 106.757 28.652C106.247 28.3139 105.923 27.8201 105.788 27.1705L106.901 26.892C107.007 27.303 107.208 27.6113 107.503 27.8168C107.801 28.0223 108.19 28.125 108.671 28.125C109.218 28.125 109.652 28.009 109.974 27.777C110.298 27.5417 110.461 27.2599 110.461 26.9318C110.461 26.6667 110.368 26.4446 110.182 26.2656C109.997 26.0833 109.712 25.9474 109.327 25.858L108.055 25.5597C107.355 25.3939 106.842 25.1371 106.513 24.7891C106.189 24.4377 106.026 23.9986 106.026 23.4716C106.026 23.0407 106.147 22.6596 106.389 22.3281C106.634 21.9967 106.967 21.7365 107.388 21.5476C107.813 21.3587 108.293 21.2642 108.83 21.2642C109.586 21.2642 110.179 21.4299 110.61 21.7614C111.044 22.0928 111.352 22.5303 111.535 23.0739ZM119.024 23.0739L117.97 23.3722C117.904 23.1965 117.806 23.0258 117.677 22.8601C117.551 22.6911 117.379 22.5518 117.16 22.4425C116.941 22.3331 116.661 22.2784 116.32 22.2784C115.852 22.2784 115.463 22.3861 115.151 22.6016C114.843 22.8137 114.689 23.0838 114.689 23.4119C114.689 23.7036 114.795 23.9339 115.007 24.103C115.219 24.272 115.551 24.4129 116.001 24.5256L117.135 24.804C117.818 24.9697 118.326 25.2232 118.661 25.5646C118.996 25.9027 119.163 26.3385 119.163 26.8722C119.163 27.3097 119.037 27.7008 118.786 28.0455C118.537 28.3902 118.189 28.6619 117.741 28.8608C117.294 29.0597 116.774 29.1591 116.18 29.1591C115.402 29.1591 114.757 28.9901 114.246 28.652C113.736 28.3139 113.413 27.8201 113.277 27.1705L114.391 26.892C114.497 27.303 114.697 27.6113 114.992 27.8168C115.291 28.0223 115.68 28.125 116.161 28.125C116.707 28.125 117.142 28.009 117.463 27.777C117.788 27.5417 117.95 27.2599 117.95 26.9318C117.95 26.6667 117.858 26.4446 117.672 26.2656C117.486 26.0833 117.201 25.9474 116.817 25.858L115.544 25.5597C114.845 25.3939 114.331 25.1371 114.003 24.7891C113.678 24.4377 113.516 23.9986 113.516 23.4716C113.516 23.0407 113.637 22.6596 113.879 22.3281C114.124 21.9967 114.457 21.7365 114.878 21.5476C115.302 21.3587 115.783 21.2642 116.32 21.2642C117.075 21.2642 117.669 21.4299 118.099 21.7614C118.534 22.0928 118.842 22.5303 119.024 23.0739Z" fill="#717179"/>
</svg>
